<svg xmlns="http://www.w3.org/2000/svg" viewBox="0 0 494.88 360.53"><defs><style>.cls-1{fill:#00e6e6;}.cls-2{fill:#212529;}.cls-3{fill:none;stroke:#212529;stroke-miterlimit:10;stroke-width:6.43px;}</style></defs><g id="Layer_2" data-name="Layer 2"><g id="Layer_1-2" data-name="Layer 1"><path class="cls-1" d="M329.09,84.29h0a18.26,18.26,0,0,0-16.45,10.33,7.92,7.92,0,0,1-7.2,4.37H242.06A43.63,43.63,0,1,0,169.54,60.1h-42.7a31.29,31.29,0,0,0,31.29,31.3h18.55a43.49,43.49,0,0,0,6.84,7.8A42,42,0,0,0,145.8,141v16.6a42,42,0,0,0,42,42H305.38a42,42,0,0,0,42-42v-55A18.25,18.25,0,0,0,329.09,84.29Z"/><path class="cls-2" d="M197.37,7.46a36.17,36.17,0,0,1,24.36,62.9l-14.24,13h82.66a15.44,15.44,0,0,0,13.91-8.59,10.79,10.79,0,0,1,20.52,4.68v55A34.54,34.54,0,0,1,290.08,169H172.47A34.55,34.55,0,0,1,138,134.44V117.85a34.38,34.38,0,0,1,31-34.34l16.79-1.69L173.21,70.54a36.41,36.41,0,0,1-5.68-6.47l-2.23-3.24H142.83a23.88,23.88,0,0,1-22.64-16.38h40.46l1-6.33A36.17,36.17,0,0,1,197.37,7.46m0-7.46a43.65,43.65,0,0,0-43.13,37H111.53a31.3,31.3,0,0,0,31.3,31.3h18.54a44.25,44.25,0,0,0,6.85,7.8,42,42,0,0,0-37.72,41.76v16.59a42,42,0,0,0,42,42H290.08a42,42,0,0,0,42-42v-55a18.26,18.26,0,0,0-18.26-18.25h0a18.26,18.26,0,0,0-16.45,10.33,7.93,7.93,0,0,1-7.19,4.37h-63.4A43.63,43.63,0,0,0,197.37,0Z"/><circle class="cls-3" cx="182.42" cy="34.61" r="9.21"/><path class="cls-2" d="M0,358.91V267.64H28.46a53.7,53.7,0,0,1,18.25,2.95A27.89,27.89,0,0,1,59.8,280q4.89,6.43,4.9,16.91a28,28,0,0,1-3.09,13.42,26.77,26.77,0,0,1-8.39,9.47,38.53,38.53,0,0,1-11.95,5.5,52.43,52.43,0,0,1-13.89,1.81H17.31v31.81Zm17.31-76.77v30.6h11a25.23,25.23,0,0,0,9.2-1.54,13.29,13.29,0,0,0,6.24-4.83A16,16,0,0,0,46.31,298q0-5.91-2.22-9.4a12.07,12.07,0,0,0-6.24-5,29.13,29.13,0,0,0-9.93-1.47Z"/><path class="cls-1" d="M85.51,287.05A9.69,9.69,0,0,1,82.69,280a9.49,9.49,0,0,1,2.82-7,9.31,9.31,0,0,1,6.84-2.82A9.56,9.56,0,0,1,99.27,273a9.38,9.38,0,0,1,2.88,7,9.69,9.69,0,0,1-2.82,7.05,9.23,9.23,0,0,1-6.84,2.89A9.38,9.38,0,0,1,85.51,287.05Z"/><path class="cls-2" d="M84,269.82a4.71,4.71,0,0,1,3.52,1.43A4.55,4.55,0,0,1,89,274.76a4.85,4.85,0,0,1-1.44,3.65,4.36,4.36,0,0,1-3.36,1.42,4.52,4.52,0,0,1-3.5-1.43,4.84,4.84,0,0,1-1.44-3.64,4.64,4.64,0,0,1,1.4-3.55,4.47,4.47,0,0,1,3.4-1.39M84,265a9.31,9.31,0,0,0-6.84,2.82,9.45,9.45,0,0,0-2.82,7,9.69,9.69,0,0,0,2.82,7,9.34,9.34,0,0,0,7,2.89A9.17,9.17,0,0,0,91,281.8a9.69,9.69,0,0,0,2.82-7,9.35,9.35,0,0,0-2.88-7A9.56,9.56,0,0,0,84,265Z"/><rect class="cls-2" x="75.43" y="293.82" width="17.58" height="65.1"/><path class="cls-2" d="M122.14,331.53a19.3,19.3,0,0,0,3,7.45,13.94,13.94,0,0,0,6.17,4.9,26.51,26.51,0,0,0,10.47,1.75,29.58,29.58,0,0,0,10.2-1.62,51,51,0,0,0,8.73-4.16l5.1,12.62a36.41,36.41,0,0,1-6.51,4.23,34.59,34.59,0,0,1-7.92,2.82,44.77,44.77,0,0,1-10,1q-12.61,0-21-4.17a27.86,27.86,0,0,1-12.55-11.87,37.56,37.56,0,0,1-4.16-18.06,39.37,39.37,0,0,1,4-18.19,28.41,28.41,0,0,1,11.34-11.94,34.51,34.51,0,0,1,17.45-4.23q10.2,0,16.78,4.63a27.43,27.43,0,0,1,9.73,12.42,45,45,0,0,1,3.15,17v5.37Zm27.39-11.67a19.23,19.23,0,0,0-2.69-7.25,12.28,12.28,0,0,0-4.63-4.23A13.52,13.52,0,0,0,136,307a13.32,13.32,0,0,0-6.31,1.48,12.59,12.59,0,0,0-4.7,4.29,19,19,0,0,0-2.68,7.12Z"/><path class="cls-2" d="M229.93,353.81a26,26,0,0,1-7.32,3.83,49.75,49.75,0,0,1-8.39,2.21,42.43,42.43,0,0,1-6.84.68,38.12,38.12,0,0,1-18.26-4.17A29.39,29.39,0,0,1,177,344.49a36.6,36.6,0,0,1-4.29-18.06,38.35,38.35,0,0,1,4.36-18.19,29.45,29.45,0,0,1,12-11.94,37.68,37.68,0,0,1,18.26-4.23,35.54,35.54,0,0,1,6.84.81,59.92,59.92,0,0,1,8.26,2.28,29.73,29.73,0,0,1,7.45,3.76l-5,12.48a60.21,60.21,0,0,0-8.79-3.29,32.17,32.17,0,0,0-8.66-1.14,15.26,15.26,0,0,0-8.66,2.55,17.27,17.27,0,0,0-6,6.91,22.38,22.38,0,0,0-2.15,10,21.93,21.93,0,0,0,2.15,9.93,16.62,16.62,0,0,0,6,6.78,15.83,15.83,0,0,0,8.73,2.49,31.81,31.81,0,0,0,8.45-1.14A59.19,59.19,0,0,0,225,341.2Z"/><path class="cls-2" d="M289.25,303.75,256.5,344.82h32.75l1.35,14.09H237l-2.42-9.26L267,308.18H239.72l-3.35-14.36h51.94Z"/><path class="cls-2" d="M301.33,298a24.31,24.31,0,0,1,7-3,85.09,85.09,0,0,1,9.06-2.08,45.12,45.12,0,0,1,7.32-.81,32.5,32.5,0,0,1,14.23,3.09,26.07,26.07,0,0,1,10.26,8.52A21,21,0,0,1,353,316.1v42.81H341.6l-3-7a33.8,33.8,0,0,1-8,6.18,18.71,18.71,0,0,1-9.19,2.42q-12,0-17.72-5.84T298,339.45q0-10.06,6.84-15.37t17.86-5.43h12.75v-.14a10.7,10.7,0,0,0-2.89-7.58,10.25,10.25,0,0,0-7.58-2.75,41.39,41.39,0,0,0-9.94,1.34,55.73,55.73,0,0,0-9,3Zm12.75,45a7.93,7.93,0,0,0,2.89,2.68,8.59,8.59,0,0,0,4.23,1,18.24,18.24,0,0,0,7.31-1.61,24.33,24.33,0,0,0,7.05-4.83v-9.94H322.41a8.67,8.67,0,0,0-7,2.82,9.48,9.48,0,0,0-2.42,6.31A6.53,6.53,0,0,0,314.08,343Z"/><path class="cls-2" d="M368.58,358.91V265.63l17.31-1.48v83.62l-8.45,11.14ZM375,304.15a39.11,39.11,0,0,1,6.65-6.44,28.51,28.51,0,0,1,7.71-4.16,25.82,25.82,0,0,1,8.73-1.48q10.2,0,17.51,4.16A28.19,28.19,0,0,1,426.9,308a43,43,0,0,1,0,36,29.18,29.18,0,0,1-11.34,12.08q-7.4,4.36-18.12,4.37a23.36,23.36,0,0,1-8.39-1.75,34.38,34.38,0,0,1-8.26-4.56,23.88,23.88,0,0,1-5.77-5.91l5-11.81a28,28,0,0,0,8.72,7.18,20.34,20.34,0,0,0,8.73,1.95,13.91,13.91,0,0,0,8.45-2.55,14.92,14.92,0,0,0,5.17-7.05,28.39,28.39,0,0,0,1.68-10,25.62,25.62,0,0,0-1.75-9.87,15.45,15.45,0,0,0-5.1-6.71,13.83,13.83,0,0,0-8.45-2.48,18.29,18.29,0,0,0-8.73,2.15,44.22,44.22,0,0,0-8.72,6.44Z"/><path class="cls-2" d="M443.21,298a24.18,24.18,0,0,1,7-3,84,84,0,0,1,9.06-2.08,44.91,44.91,0,0,1,7.31-.81,32.5,32.5,0,0,1,14.23,3.09,26.1,26.1,0,0,1,10.27,8.52,21,21,0,0,1,3.82,12.42v42.81H483.47l-3-7a33.8,33.8,0,0,1-8,6.18,18.68,18.68,0,0,1-9.19,2.42q-12,0-17.72-5.84t-5.77-15.24q0-10.06,6.85-15.37t17.85-5.43H477.3v-.14a10.66,10.66,0,0,0-2.89-7.58,10.25,10.25,0,0,0-7.58-2.75,41.38,41.38,0,0,0-9.93,1.34,55.88,55.88,0,0,0-9,3ZM456,343a7.9,7.9,0,0,0,2.88,2.68,8.59,8.59,0,0,0,4.23,1,18.25,18.25,0,0,0,7.32-1.61,24.16,24.16,0,0,0,7-4.83v-9.94H464.28a8.69,8.69,0,0,0-7,2.82,9.48,9.48,0,0,0-2.42,6.31A6.46,6.46,0,0,0,456,343Z"/></g></g></svg>